<svg id="Logo_Outline_Background" data-name="Logo_Outline/Background" xmlns="http://www.w3.org/2000/svg" xmlns:xlink="http://www.w3.org/1999/xlink" viewBox="0 0 300 51.35"><defs><style>.cls-1{fill:#3d3938;}.cls-2{fill:url(#Front_Face_Gradient);}.cls-3{fill:#998f8b;}.cls-4{fill:#262423;}.cls-5{fill:#6b6562;}.cls-6{fill:#171615;}.cls-7{fill:url(#Crack_Highlight_Gradient);}.cls-8{fill:url(#Crack_Highlight_Gradient-2);}.cls-9{fill:url(#Crack_Highlight_Gradient-3);}.cls-10{fill:url(#Crack_Highlight_Gradient-4);}.cls-11{fill:url(#Crack_Highlight_Gradient-5);}.cls-12{fill:url(#Crack_Highlight_Gradient-6);}.cls-13{fill:url(#Crack_Highlight_Gradient-7);}.cls-14{fill:url(#Crack_Highlight_Gradient-8);}.cls-15{fill:url(#Crack_Highlight_Gradient-9);}.cls-16{fill:url(#Crack_Highlight_Gradient-10);}.cls-17{fill:url(#Crack_Highlight_Gradient-11);}.cls-18{fill:url(#Crack_Highlight_Gradient-12);}.cls-19{fill:url(#Crack_Highlight_Gradient-13);}.cls-20{fill:url(#Crack_Highlight_Gradient-14);}.cls-21{fill:url(#Crack_Highlight_Gradient-15);}.cls-22{fill:url(#Crack_Highlight_Gradient-16);}.cls-23{fill:url(#Crack_Highlight_Gradient-17);}.cls-24{fill:url(#Crack_Highlight_Gradient-18);}.cls-25{fill:url(#Crack_Highlight_Gradient-19);}.cls-26{fill:url(#Crack_Highlight_Gradient-20);}.cls-27{fill:url(#Crack_Highlight_Gradient-21);}.cls-28{fill:url(#Crack_Highlight_Gradient-22);}.cls-29{fill:url(#Crack_Highlight_Gradient-23);}.cls-30{fill:url(#Crack_Highlight_Gradient-24);}.cls-31{fill:url(#Crack_Highlight_Gradient-25);}.cls-32{fill:url(#Crack_Highlight_Gradient-26);}.cls-33{fill:url(#Crack_Highlight_Gradient-27);}.cls-34{fill:url(#Crack_Highlight_Gradient-28);}.cls-35{fill:url(#Crack_Highlight_Gradient-29);}.cls-36{fill:url(#Crack_Highlight_Gradient-30);}.cls-37{fill:url(#Crack_Highlight_Gradient-31);}.cls-38{fill:url(#Crack_Highlight_Gradient-32);}.cls-39{fill:url(#Crack_Highlight_Gradient-33);}.cls-40{fill:url(#Crack_Highlight_Gradient-34);}.cls-41{fill:url(#Crack_Highlight_Gradient-35);}.cls-42{fill:url(#Crack_Highlight_Gradient-36);}.cls-43{fill:url(#Crack_Highlight_Gradient-37);}.cls-44{fill:url(#Crack_Highlight_Gradient-38);}.cls-45{fill:url(#Crack_Highlight_Gradient-39);}.cls-46{fill:url(#Crack_Highlight_Gradient-40);}.cls-47{fill:url(#Crack_Highlight_Gradient-41);}.cls-48{fill:url(#Crack_Highlight_Gradient-42);}.cls-49{fill:url(#Crack_Highlight_Gradient-43);}.cls-50{fill:url(#Crack_Highlight_Gradient-44);}.cls-51{fill:url(#Crack_Highlight_Gradient-45);}.cls-52{fill:url(#Crack_Highlight_Gradient-46);}.cls-53{fill:url(#Crack_Highlight_Gradient-47);}.cls-54{fill:url(#Crack_Highlight_Gradient-48);}.cls-55{fill:url(#Crack_Highlight_Gradient-49);}.cls-56{fill:url(#Crack_Highlight_Gradient-50);}.cls-57{fill:url(#Crack_Highlight_Gradient-51);}.cls-58{fill:url(#Crack_Highlight_Gradient-52);}.cls-59{fill:url(#Crack_Highlight_Gradient-53);}.cls-60{fill:url(#Crack_Highlight_Gradient-54);}.cls-61{fill:url(#Crack_Highlight_Gradient-55);}.cls-62{fill:url(#Crack_Highlight_Gradient-56);}.cls-63{fill:url(#Crack_Highlight_Gradient-57);}.cls-64{fill:url(#Crack_Highlight_Gradient-58);}.cls-65{fill:url(#Crack_Highlight_Gradient-59);}.cls-66{fill:url(#Crack_Highlight_Gradient-60);}.cls-67{fill:url(#Crack_Highlight_Gradient-61);}.cls-68{fill:url(#Crack_Highlight_Gradient-62);}.cls-69{fill:url(#Crack_Highlight_Gradient-63);}.cls-70{fill:url(#Crack_Highlight_Gradient-64);}.cls-71{fill:url(#Crack_Highlight_Gradient-65);}.cls-72{fill:url(#Crack_Highlight_Gradient-66);}.cls-73{fill:url(#Crack_Highlight_Gradient-67);}.cls-74{fill:url(#Crack_Highlight_Gradient-68);}.cls-75{fill:url(#Crack_Highlight_Gradient-69);}.cls-76{fill:url(#Crack_Highlight_Gradient-70);}.cls-77{fill:url(#Crack_Highlight_Gradient-71);}.cls-78{fill:url(#Crack_Highlight_Gradient-72);}.cls-79{fill:url(#Crack_Highlight_Gradient-73);}</style><linearGradient id="Front_Face_Gradient" x1="150.01" y1="2.37" x2="150.01" y2="37.66" gradientUnits="userSpaceOnUse"><stop offset="0" stop-color="#d0c5c0"/><stop offset="0.99" stop-color="#aba09c"/></linearGradient><linearGradient id="Crack_Highlight_Gradient" x1="141.79" y1="7.35" x2="141.79" y2="37.4" gradientUnits="userSpaceOnUse"><stop offset="0" stop-color="#ede5e2"/><stop offset="1" stop-color="#d0c5c0"/></linearGradient><linearGradient id="Crack_Highlight_Gradient-2" x1="75.18" y1="7.35" x2="75.18" y2="37.4" xlink:href="#Crack_Highlight_Gradient"/><linearGradient id="Crack_Highlight_Gradient-3" x1="91.83" y1="7.35" x2="91.83" y2="37.4" xlink:href="#Crack_Highlight_Gradient"/><linearGradient id="Crack_Highlight_Gradient-4" x1="287.49" y1="7.35" x2="287.49" y2="37.4" xlink:href="#Crack_Highlight_Gradient"/><linearGradient id="Crack_Highlight_Gradient-5" x1="9.43" y1="7.34" x2="9.43" y2="37.4" xlink:href="#Crack_Highlight_Gradient"/><linearGradient id="Crack_Highlight_Gradient-6" x1="13.73" y1="7.34" x2="13.73" y2="37.4" xlink:href="#Crack_Highlight_Gradient"/><linearGradient id="Crack_Highlight_Gradient-7" x1="14.81" y1="7.35" x2="14.81" y2="37.4" xlink:href="#Crack_Highlight_Gradient"/><linearGradient id="Crack_Highlight_Gradient-8" x1="26.34" y1="7.35" x2="26.34" y2="37.4" xlink:href="#Crack_Highlight_Gradient"/><linearGradient id="Crack_Highlight_Gradient-9" x1="39.25" y1="7.35" x2="39.25" y2="37.4" xlink:href="#Crack_Highlight_Gradient"/><linearGradient id="Crack_Highlight_Gradient-10" x1="56.4" y1="7.35" x2="56.4" y2="37.4" xlink:href="#Crack_Highlight_Gradient"/><linearGradient id="Crack_Highlight_Gradient-11" x1="72.55" y1="7.35" x2="72.55" y2="37.4" xlink:href="#Crack_Highlight_Gradient"/><linearGradient id="Crack_Highlight_Gradient-12" x1="108.95" y1="7.4" x2="108.95" y2="37.37" xlink:href="#Crack_Highlight_Gradient"/><linearGradient id="Crack_Highlight_Gradient-13" x1="127.57" y1="7.35" x2="127.57" y2="37.4" xlink:href="#Crack_Highlight_Gradient"/><linearGradient id="Crack_Highlight_Gradient-14" x1="182.87" y1="7.35" x2="182.87" y2="37.4" xlink:href="#Crack_Highlight_Gradient"/><linearGradient id="Crack_Highlight_Gradient-15" x1="191.93" y1="7.35" x2="191.93" y2="37.4" xlink:href="#Crack_Highlight_Gradient"/><linearGradient id="Crack_Highlight_Gradient-16" x1="214.87" y1="7.35" x2="214.87" y2="37.4" xlink:href="#Crack_Highlight_Gradient"/><linearGradient id="Crack_Highlight_Gradient-17" x1="229.79" y1="7.35" x2="229.79" y2="37.4" xlink:href="#Crack_Highlight_Gradient"/><linearGradient id="Crack_Highlight_Gradient-18" x1="211.08" y1="7.34" x2="211.08" y2="37.4" xlink:href="#Crack_Highlight_Gradient"/><linearGradient id="Crack_Highlight_Gradient-19" x1="218.18" y1="7.34" x2="218.18" y2="37.4" xlink:href="#Crack_Highlight_Gradient"/><linearGradient id="Crack_Highlight_Gradient-20" x1="230.96" y1="7.35" x2="230.96" y2="37.4" xlink:href="#Crack_Highlight_Gradient"/><linearGradient id="Crack_Highlight_Gradient-21" x1="248.01" y1="7.35" x2="248.01" y2="37.4" xlink:href="#Crack_Highlight_Gradient"/><linearGradient id="Crack_Highlight_Gradient-22" x1="290.61" y1="7.35" x2="290.61" y2="37.4" xlink:href="#Crack_Highlight_Gradient"/><linearGradient id="Crack_Highlight_Gradient-23" x1="177" y1="7.35" x2="177" y2="37.4" xlink:href="#Crack_Highlight_Gradient"/><linearGradient id="Crack_Highlight_Gradient-24" x1="184.1" y1="7.34" x2="184.1" y2="37.4" xlink:href="#Crack_Highlight_Gradient"/><linearGradient id="Crack_Highlight_Gradient-25" x1="145.75" y1="7.35" x2="145.75" y2="37.4" xlink:href="#Crack_Highlight_Gradient"/><linearGradient id="Crack_Highlight_Gradient-26" x1="161.38" y1="7.35" x2="161.38" y2="37.4" xlink:href="#Crack_Highlight_Gradient"/><linearGradient id="Crack_Highlight_Gradient-27" x1="196.88" y1="7.35" x2="196.88" y2="37.4" xlink:href="#Crack_Highlight_Gradient"/><linearGradient id="Crack_Highlight_Gradient-28" x1="107.41" y1="7.35" x2="107.41" y2="37.4" xlink:href="#Crack_Highlight_Gradient"/><linearGradient id="Crack_Highlight_Gradient-29" x1="118.06" y1="7.35" x2="118.06" y2="37.4" xlink:href="#Crack_Highlight_Gradient"/><linearGradient id="Crack_Highlight_Gradient-30" x1="130.84" y1="7.35" x2="130.84" y2="37.4" xlink:href="#Crack_Highlight_Gradient"/><linearGradient id="Crack_Highlight_Gradient-31" x1="91.79" y1="7.35" x2="91.79" y2="37.4" xlink:href="#Crack_Highlight_Gradient"/><linearGradient id="Crack_Highlight_Gradient-32" x1="98.89" y1="7.35" x2="98.89" y2="37.4" xlink:href="#Crack_Highlight_Gradient"/><linearGradient id="Crack_Highlight_Gradient-33" x1="69.07" y1="7.35" x2="69.07" y2="37.4" xlink:href="#Crack_Highlight_Gradient"/><linearGradient id="Crack_Highlight_Gradient-34" x1="76.17" y1="7.35" x2="76.17" y2="37.4" xlink:href="#Crack_Highlight_Gradient"/><linearGradient id="Crack_Highlight_Gradient-35" x1="52.03" y1="7.35" x2="52.03" y2="37.4" xlink:href="#Crack_Highlight_Gradient"/><linearGradient id="Crack_Highlight_Gradient-36" x1="59.13" y1="7.35" x2="59.13" y2="37.4" xlink:href="#Crack_Highlight_Gradient"/><linearGradient id="Crack_Highlight_Gradient-37" x1="207.58" y1="7.4" x2="207.58" y2="37.31" xlink:href="#Crack_Highlight_Gradient"/><linearGradient id="Crack_Highlight_Gradient-38" x1="84.57" y1="7.35" x2="84.57" y2="37.4" xlink:href="#Crack_Highlight_Gradient"/><linearGradient id="Crack_Highlight_Gradient-39" x1="18.26" y1="7.35" x2="18.26" y2="37.4" xlink:href="#Crack_Highlight_Gradient"/><linearGradient id="Crack_Highlight_Gradient-40" x1="42.93" y1="7.35" x2="42.93" y2="37.4" xlink:href="#Crack_Highlight_Gradient"/><linearGradient id="Crack_Highlight_Gradient-41" x1="47.37" y1="7.35" x2="47.37" y2="37.4" xlink:href="#Crack_Highlight_Gradient"/><linearGradient id="Crack_Highlight_Gradient-42" x1="38.57" y1="7.35" x2="38.57" y2="37.4" xlink:href="#Crack_Highlight_Gradient"/><linearGradient id="Crack_Highlight_Gradient-43" x1="65.6" y1="7.35" x2="65.6" y2="37.4" xlink:href="#Crack_Highlight_Gradient"/><linearGradient id="Crack_Highlight_Gradient-44" x1="82.27" y1="7.35" x2="82.27" y2="37.4" xlink:href="#Crack_Highlight_Gradient"/><linearGradient id="Crack_Highlight_Gradient-45" x1="98.27" y1="7.35" x2="98.27" y2="37.4" xlink:href="#Crack_Highlight_Gradient"/><linearGradient id="Crack_Highlight_Gradient-46" x1="109.95" y1="7.35" x2="109.95" y2="37.4" xlink:href="#Crack_Highlight_Gradient"/><linearGradient id="Crack_Highlight_Gradient-47" x1="146.19" y1="7.35" x2="146.19" y2="37.4" xlink:href="#Crack_Highlight_Gradient"/><linearGradient id="Crack_Highlight_Gradient-48" x1="174.43" y1="7.35" x2="174.43" y2="37.4" xlink:href="#Crack_Highlight_Gradient"/><linearGradient id="Crack_Highlight_Gradient-49" x1="186.36" y1="7.35" x2="186.36" y2="37.4" xlink:href="#Crack_Highlight_Gradient"/><linearGradient id="Crack_Highlight_Gradient-50" x1="272.58" y1="7.35" x2="272.58" y2="37.4" xlink:href="#Crack_Highlight_Gradient"/><linearGradient id="Crack_Highlight_Gradient-51" x1="293.29" y1="7.35" x2="293.29" y2="37.4" xlink:href="#Crack_Highlight_Gradient"/><linearGradient id="Crack_Highlight_Gradient-52" x1="252.24" y1="7.33" x2="252.24" y2="37.25" xlink:href="#Crack_Highlight_Gradient"/><linearGradient id="Crack_Highlight_Gradient-53" x1="251.86" y1="7.35" x2="251.86" y2="37.4" xlink:href="#Crack_Highlight_Gradient"/><linearGradient id="Crack_Highlight_Gradient-54" x1="260.55" y1="7.35" x2="260.55" y2="37.4" xlink:href="#Crack_Highlight_Gradient"/><linearGradient id="Crack_Highlight_Gradient-55" x1="179.31" y1="7.38" x2="179.31" y2="37.3" xlink:href="#Crack_Highlight_Gradient"/><linearGradient id="Crack_Highlight_Gradient-56" x1="213.76" y1="7.35" x2="213.76" y2="37.4" xlink:href="#Crack_Highlight_Gradient"/><linearGradient id="Crack_Highlight_Gradient-57" x1="218.99" y1="7.35" x2="218.99" y2="37.4" xlink:href="#Crack_Highlight_Gradient"/><linearGradient id="Crack_Highlight_Gradient-58" x1="223.12" y1="7.35" x2="223.12" y2="37.4" xlink:href="#Crack_Highlight_Gradient"/><linearGradient id="Crack_Highlight_Gradient-59" x1="223.04" y1="7.35" x2="223.04" y2="37.4" xlink:href="#Crack_Highlight_Gradient"/><linearGradient id="Crack_Highlight_Gradient-60" x1="215.59" y1="7.35" x2="215.59" y2="37.4" xlink:href="#Crack_Highlight_Gradient"/><linearGradient id="Crack_Highlight_Gradient-61" x1="128.21" y1="7.35" x2="128.21" y2="37.4" xlink:href="#Crack_Highlight_Gradient"/><linearGradient id="Crack_Highlight_Gradient-62" x1="160.3" y1="7.35" x2="160.3" y2="37.4" xlink:href="#Crack_Highlight_Gradient"/><linearGradient id="Crack_Highlight_Gradient-63" x1="199.05" y1="7.35" x2="199.05" y2="37.4" xlink:href="#Crack_Highlight_Gradient"/><linearGradient id="Crack_Highlight_Gradient-64" x1="10.37" y1="7.35" x2="10.37" y2="37.4" xlink:href="#Crack_Highlight_Gradient"/><linearGradient id="Crack_Highlight_Gradient-65" x1="22.07" y1="7.35" x2="22.07" y2="37.4" xlink:href="#Crack_Highlight_Gradient"/><linearGradient id="Crack_Highlight_Gradient-66" x1="34.47" y1="7.35" x2="34.47" y2="37.4" xlink:href="#Crack_Highlight_Gradient"/><linearGradient id="Crack_Highlight_Gradient-67" x1="254.81" y1="7.35" x2="254.81" y2="37.4" xlink:href="#Crack_Highlight_Gradient"/><linearGradient id="Crack_Highlight_Gradient-68" x1="263.76" y1="7.35" x2="263.76" y2="37.4" xlink:href="#Crack_Highlight_Gradient"/><linearGradient id="Crack_Highlight_Gradient-69" x1="241.72" y1="7.35" x2="241.72" y2="37.4" xlink:href="#Crack_Highlight_Gradient"/><linearGradient id="Crack_Highlight_Gradient-70" x1="127.42" y1="7.35" x2="127.42" y2="37.4" xlink:href="#Crack_Highlight_Gradient"/><linearGradient id="Crack_Highlight_Gradient-71" x1="152.87" y1="7.35" x2="152.87" y2="37.4" xlink:href="#Crack_Highlight_Gradient"/><linearGradient id="Crack_Highlight_Gradient-72" x1="187.33" y1="7.35" x2="187.33" y2="37.4" xlink:href="#Crack_Highlight_Gradient"/><linearGradient id="Crack_Highlight_Gradient-73" x1="220.88" y1="7.35" x2="220.88" y2="37.4" xlink:href="#Crack_Highlight_Gradient"/></defs><path d="M294.21,18.6l5.41-9-3-9.63H90.43l-1,7L87.55,0h-48L37.84,6.62h-4l-1,3.66L27.59,0H11.94L0,38.31l9.51,13H25.15l1.91-7.23h6.32l4.24,7.23H85.89L87,43l2.67,8.39H251l6.53-13.53h5.9l5.49-10.73,5.86,24.26H291l9-13.06ZM154.85,27.69l0-4.58h13.88l.14,4.58Z"/><polygon class="cls-1" points="62.62 37.82 49.83 37.82 55.3 48.69 67.42 48.69 62.62 37.82"/><polygon class="cls-1" points="66.89 37.82 71.46 48.69 83.58 48.69 79.67 37.82 66.89 37.82"/><polygon class="cls-1" points="105.25 37.82 107.82 48.69 136.1 48.69 135.09 37.82 105.25 37.82"/><polygon class="cls-1" points="169.2 37.82 168.42 48.69 140.14 48.69 139.36 37.82 169.2 37.82"/><polygon class="cls-1" points="173.46 37.82 186.25 37.82 184.58 48.69 172.46 48.69 173.46 37.82"/><polygon class="cls-1" points="190.51 37.82 188.62 48.69 200.74 48.69 203.3 37.82 190.51 37.82"/><polygon class="cls-1" points="207.56 37.82 204.78 48.69 216.9 48.69 220.35 37.82 207.56 37.82"/><polygon class="cls-1" points="224.62 37.82 220.93 48.69 233.05 48.69 237.41 37.82 224.62 37.82"/><polygon class="cls-1" points="241.67 37.82 237.09 48.69 249.21 48.69 254.46 37.82 241.67 37.82"/><polygon class="cls-1" points="284.3 37.82 277.49 48.69 289.61 48.69 297.09 37.82 284.3 37.82"/><polygon class="cls-1" points="88.2 37.82 91.66 48.69 103.78 48.69 100.99 37.82 88.2 37.82"/><polygon class="cls-1" points="32.78 37.82 45.57 37.82 51.26 48.69 39.14 48.69 32.78 37.82"/><polygon class="cls-1" points="10.87 48.69 2.94 37.82 15.73 37.82 22.98 48.69 10.87 48.69"/><path class="cls-2" d="M36.46,23.11H32.33l-1.88,7.24H22.06l2-7.24H19.93l-4.2,14.71H2.94l11-35.16H25.76L23.87,9.28h4L26,16.09h8.14l1.77-6.81h4l1.66-6.62H53.44L45.57,37.82H32.78ZM57.39,2.66H69.26L62.62,37.82H49.83Zm51.41,0h27.68l-.26,6.62h-16l-.51,6.81H136l-.28,7H119.14l-.54,7.24h16.79l-.3,7.47H105.25Zm31.64,0h27.68l.2,6.62h-16l-.09,21.07H169l.23,7.47H139.36Zm49,20.45h-4.14l1,14.71H173.46L172.07,2.66h27.68l1.36,13.43H197l.32,3.49h4.1l1.84,18.24H190.51Zm-5-13.83.45,6.81h4.07l-.51-6.81Zm51-6.62H263l1.6,6.62H248.57L250,16.09h16.29l1.69,7H251.42l3,14.71H241.67Zm41.32,6.62h-8L267,2.66h27.68l2.06,6.62h-8l8.39,28.54H284.3ZM89.71,26.7H85.55l1-7.12h-4.1L79.67,37.82H66.89L73.21,2.66H85.07l-1,6.62h4l-1,6.81h4.08L93,2.66h11.87L101,37.82H88.2Zm141.68-24H203.71l3.85,35.16h12.79L218.84,26.7H223l1.61,11.12h12.79Zm-9.33,12.86h2l1,6.41h-2.74L222,19.58h-4.1l.32,2.35h-2.75l-.83-6.41h2l-.23-1.72h-4.73l-.56-4.52h5.35l.54,4h4.05l-.58-4h5.35l.71,4.52h-4.73Z"/><polygon class="cls-3" points="57.04 30.35 55.52 37.82 54.1 37.82 55.64 30.35 57.04 30.35"/><polygon class="cls-3" points="215.61 34.05 216.09 37.82 214.67 37.82 214.2 34.05 215.61 34.05"/><polygon class="cls-4" points="55.52 37.82 57.13 41.21 55.73 41.21 54.1 37.82 55.52 37.82"/><polygon class="cls-3" points="73.2 34.05 72.57 37.82 71.15 37.82 71.79 34.05 73.2 34.05"/><polygon class="cls-4" points="96.73 37.82 97.67 41.21 96.27 41.21 95.31 37.82 96.73 37.82"/><polygon class="cls-4" points="110.94 37.82 112.33 44.48 110.95 44.48 109.52 37.82 110.94 37.82"/><polygon class="cls-4" points="20.18 44.48 19.45 43.4 15.31 43.4 16.05 44.48 20.18 44.48"/><polygon class="cls-4" points="243.47 43.4 239.32 43.4 238.87 44.48 242.99 44.48 243.47 43.4"/><polygon class="cls-4" points="193.69 43.4 189.54 43.4 189.35 44.48 193.47 44.48 193.69 43.4"/><polygon class="cls-4" points="125.62 41.21 127.02 41.21 126.57 37.82 125.15 37.82 125.62 41.21"/><polygon class="cls-4" points="280.13 44.48 280.8 43.4 284.95 43.4 284.25 44.48 280.13 44.48"/><polygon class="cls-4" points="49.06 44.48 48.49 43.4 44.34 43.4 44.93 44.48 49.06 44.48"/><polygon class="cls-3" points="209.81 20.75 209.67 19.58 205.56 19.58 205.69 20.75 209.81 20.75"/><polygon class="cls-3" points="43.92 14.94 45.54 8.16 40.2 8.16 39.92 9.28 43.93 9.28 42.57 14.94 34.44 14.94 34.14 16.09 50.43 16.09 50.69 14.94 43.92 14.94"/><polygon class="cls-3" points="288.07 2.66 286.75 2.66 288.7 9.28 290.03 9.28 288.07 2.66"/><polygon class="cls-3" points="258.12 16.09 256.76 16.09 258.31 23.11 259.69 23.11 258.12 16.09"/><polygon class="cls-3" points="185.76 30.35 185.68 29.13 180.09 29.13 180.57 37.82 181.99 37.82 181.56 30.35 185.76 30.35"/><polygon class="cls-3" points="12.18 8.16 24.19 8.16 23.87 9.28 11.83 9.28 12.18 8.16"/><polygon class="cls-3" points="68.67 27.91 68.89 26.7 81.38 26.7 81.2 27.91 68.67 27.91"/><polygon class="cls-3" points="281.65 27.91 281.32 26.7 293.82 26.7 294.17 27.91 281.65 27.91"/><polygon class="cls-3" points="223.71 31.58 223.53 30.35 236.13 30.35 236.34 31.58 223.71 31.58"/><polygon class="cls-3" points="98.04 26.7 89.71 26.7 89.55 27.91 96.51 27.91 95.31 37.82 96.73 37.82 98.04 26.7"/><polygon class="cls-3" points="180.75 16.09 180.68 14.94 177.97 14.94 177.34 2.66 176.03 2.66 176.46 11.53 172.42 11.53 172.47 12.66 176.51 12.66 176.68 16.09 180.75 16.09"/><polygon class="cls-3" points="180.75 16.09 180.68 14.94 177.97 14.94 177.34 2.66 176.03 2.66 176.46 11.53 172.42 11.53 172.47 12.66 176.51 12.66 176.68 16.09 180.75 16.09"/><polygon class="cls-3" points="17.86 30.35 18.21 29.13 11.23 29.13 13.04 23.11 7.52 23.11 7.15 24.3 11.3 24.3 8.35 34.05 9.76 34.05 16.81 34.05 17.16 32.81 10.13 32.81 10.87 30.35 17.86 30.35"/><polygon class="cls-3" points="256.6 9.28 255.6 4.85 248.98 4.85 248.53 2.66 247.21 2.66 247.88 5.95 254.52 5.95 255.26 9.28 256.6 9.28"/><polygon class="cls-3" points="107.91 11.53 111.94 11.53 111.83 12.66 107.79 12.66 107.91 11.53"/><polygon class="cls-3" points="106.13 29.13 106.01 30.35 110.2 30.35 109.52 37.82 110.94 37.82 111.71 29.13 106.13 29.13"/><polygon class="cls-3" points="84.23 8.16 80.23 8.16 80.05 9.28 84.06 9.28 84.23 8.16"/><polygon class="cls-3" points="104.24 8.16 92.23 8.16 92.08 9.28 104.12 9.28 104.24 8.16"/><polygon class="cls-4" points="216.09 37.82 214.67 37.82 212.73 44.48 214.11 44.48 216.09 37.82"/><polygon class="cls-3" points="189.86 29.13 189.96 30.35 194.15 30.35 194.05 29.13 189.86 29.13"/><polygon class="cls-3" points="140.13 12.66 140.09 13.8 144.15 13.8 143.86 26.7 139.7 26.7 139.66 27.91 145.23 27.91 145.5 13.8 152.25 13.8 152.26 12.66 140.13 12.66"/><polygon class="cls-3" points="245.92 30.35 244.53 23.11 239.02 23.11 239.24 24.3 243.38 24.3 244.52 30.35 245.92 30.35"/><polygon class="cls-3" points="153.57 37.82 152.15 37.82 152.16 34.67 153.57 34.67 153.57 37.82"/><polygon class="cls-4" points="153.58 41.21 152.18 41.21 152.15 37.82 153.57 37.82 153.58 41.21"/><polygon class="cls-4" points="181.53 41.21 180.14 41.21 180.57 37.82 181.99 37.82 181.53 41.21"/><polygon class="cls-3" points="62.88 8.16 61.98 12.66 63.33 12.66 64 9.28 68.01 9.28 68.22 8.16 62.88 8.16"/><polygon class="cls-3" points="129.79 30.35 129.67 32.81 125.45 32.81 125.15 37.82 126.57 37.82 126.78 34.05 131.01 34.05 131.19 30.35 129.79 30.35"/><polygon class="cls-4" points="168.76 43.94 168.8 43.4 164.65 43.4 164.62 43.95 168.76 43.94"/><polygon class="cls-4" points="72.57 37.82 75.19 44.48 73.82 44.48 71.15 37.82 72.57 37.82"/><polygon class="cls-5" points="13.04 23.11 12.86 23.71 7.34 23.71 7.52 23.11 13.04 23.11"/><polygon class="cls-5" points="11.23 29.13 11.75 29.74 18.04 29.74 18.21 29.13 11.23 29.13"/><polygon class="cls-5" points="10.13 32.81 10.65 33.43 16.98 33.43 17.16 32.81 10.13 32.81"/><polygon class="cls-5" points="12.18 8.16 24.19 8.16 24.03 8.72 12.01 8.72 12.18 8.16"/><polygon class="cls-5" points="40.2 8.16 40.06 8.72 45.4 8.72 45.54 8.16 40.2 8.16"/><polygon class="cls-5" points="43.93 9.28 44.47 9.84 43.11 15.52 34.29 15.52 34.44 14.94 42.57 14.94 43.93 9.28"/><polygon class="cls-5" points="43.92 14.94 44.46 15.52 50.56 15.52 50.69 14.94 43.92 14.94"/><polygon class="cls-5" points="11.3 24.3 11.81 24.9 9.05 34.05 8.35 34.05 11.3 24.3"/><polygon class="cls-5" points="61.98 12.66 62.65 12.66 63.44 8.72 68.11 8.72 68.22 8.16 62.88 8.16 61.98 12.66"/><polygon class="cls-5" points="57.04 30.35 56.91 30.96 56.21 30.96 54.81 37.82 54.1 37.82 55.64 30.35 57.04 30.35"/><polygon class="cls-5" points="80.05 9.28 80.72 9.28 80.8 8.72 84.14 8.72 84.23 8.16 80.23 8.16 80.05 9.28"/><polygon class="cls-5" points="92.23 8.16 104.24 8.16 104.18 8.72 92.16 8.72 92.23 8.16"/><polygon class="cls-5" points="68.89 26.7 81.38 26.7 81.29 27.31 68.78 27.31 68.89 26.7"/><polygon class="cls-5" points="73.2 34.05 71.79 34.05 71.15 37.82 71.86 37.82 72.39 34.67 73.1 34.67 73.2 34.05"/><polygon class="cls-5" points="89.71 26.7 89.63 27.31 97.97 27.31 98.04 26.7 89.71 26.7"/><polygon class="cls-5" points="96.51 27.91 97.13 28.52 96.02 37.82 95.31 37.82 96.51 27.91"/><polygon class="cls-5" points="107.91 11.53 107.85 12.09 111.89 12.09 111.94 11.53 107.91 11.53"/><polygon class="cls-5" points="106.13 29.13 106.07 29.74 111.66 29.74 111.71 29.13 106.13 29.13"/><polygon class="cls-5" points="110.2 30.35 110.85 30.96 110.23 37.82 109.52 37.82 110.2 30.35"/><polygon class="cls-5" points="130.49 30.35 129.79 30.35 129.67 32.81 125.45 32.81 125.15 37.82 125.86 37.82 126.11 33.43 130.34 33.43 130.49 30.35"/><polygon class="cls-5" points="140.11 13.23 152.25 13.23 152.26 12.66 140.13 12.66 140.11 13.23"/><polygon class="cls-5" points="144.15 13.8 144.81 14.37 144.55 27.31 139.68 27.31 139.7 26.7 143.86 26.7 144.15 13.8"/><polygon class="cls-5" points="176.46 11.53 172.42 11.53 172.44 12.09 175.81 12.09 176.46 11.53"/><polygon class="cls-5" points="180.75 16.09 180.68 14.94 177.97 14.94 177.34 2.66 176.69 2.66 177.32 15.52 180.04 15.52 180.07 16.09 180.75 16.09"/><polygon class="cls-5" points="185.72 29.74 185.68 29.13 180.09 29.13 180.13 29.74 185.72 29.74"/><polygon class="cls-5" points="181.56 30.35 180.9 30.96 181.28 37.82 181.99 37.82 181.56 30.35"/><polyline class="cls-5" points="189.86 29.13 189.91 29.74 193.4 29.74 193.45 30.35 194.15 30.35 194.05 29.13 189.86 29.13"/><polygon class="cls-5" points="205.63 20.16 205.56 19.58 209.67 19.58 209.81 20.75 209.12 20.75 209.05 20.16 205.63 20.16"/><polygon class="cls-5" points="223.53 30.35 236.13 30.35 236.23 30.96 223.62 30.96 223.53 30.35"/><polygon class="cls-5" points="214.28 34.67 214.98 34.67 215.38 37.82 216.09 37.82 215.61 34.05 214.2 34.05 214.28 34.67"/><polygon class="cls-5" points="239.13 23.71 243.96 23.71 245.22 30.35 245.92 30.35 244.53 23.11 239.02 23.11 239.13 23.71"/><polygon class="cls-5" points="248.53 2.66 247.87 2.66 248.43 5.4 255.06 5.4 255.93 9.28 256.6 9.28 255.6 4.85 248.98 4.85 248.53 2.66"/><polygon class="cls-5" points="258.12 16.09 257.44 16.09 259 23.11 259.69 23.11 258.12 16.09"/><polygon class="cls-5" points="281.32 26.7 293.82 26.7 294 27.31 281.48 27.31 281.32 26.7"/><polygon class="cls-5" points="287.41 2.66 289.37 9.28 290.03 9.28 288.07 2.66 287.41 2.66"/><polygon class="cls-5" points="152.16 34.05 152.16 34.67 153.57 34.67 153.57 34.05 152.16 34.05"/><polygon class="cls-6" points="44.93 44.48 44.34 43.4 45.04 43.4 45.33 43.95 48.78 43.94 49.06 44.48 44.93 44.48"/><polygon class="cls-6" points="54.81 37.82 54.1 37.82 55.73 41.21 57.13 41.21 56.86 40.65 56.16 40.65 54.81 37.82"/><polygon class="cls-6" points="96.02 37.82 96.81 40.65 97.51 40.65 97.67 41.21 96.27 41.21 95.31 37.82 96.02 37.82"/><polygon class="cls-6" points="110.23 37.82 111.53 43.94 112.22 43.95 112.33 44.48 110.95 44.48 109.52 37.82 110.23 37.82"/><polygon class="cls-6" points="125.86 37.82 126.24 40.65 126.94 40.65 127.02 41.21 125.62 41.21 125.15 37.82 125.86 37.82"/><polygon class="cls-6" points="215.38 37.82 213.58 43.95 212.89 43.94 212.73 44.48 214.11 44.48 216.09 37.82 215.38 37.82"/><polygon class="cls-6" points="242.99 44.48 243.47 43.4 242.78 43.4 242.54 43.95 239.09 43.95 238.87 44.48 242.99 44.48"/><polygon class="cls-6" points="280.46 43.95 283.91 43.95 284.26 43.4 284.95 43.4 284.25 44.48 280.13 44.48 280.46 43.95"/><polygon class="cls-6" points="15.31 43.4 16.05 44.48 20.18 44.48 19.82 43.95 16.37 43.95 16 43.4 15.31 43.4"/><polygon class="cls-6" points="181.28 37.82 180.91 40.65 180.21 40.65 180.14 41.21 181.53 41.21 181.99 37.82 181.28 37.82"/><polygon class="cls-6" points="152.18 40.65 152.18 41.21 153.58 41.21 153.58 40.65 152.18 40.65"/><polygon class="cls-6" points="164.62 43.95 164.59 44.48 168.72 44.48 168.76 43.94 164.62 43.95"/><polygon class="cls-6" points="71.86 37.82 71.15 37.82 73.82 44.48 75.19 44.48 74.98 43.95 74.29 43.94 71.86 37.82"/><polygon class="cls-6" points="189.44 43.94 189.35 44.48 193.47 44.48 193.69 43.4 193 43.4 192.89 43.94 189.44 43.94"/><polygon class="cls-5" points="16.05 44.48 16.42 45.02 20.53 45.02 20.18 44.48 16.05 44.48"/><polygon class="cls-5" points="44.93 44.48 49.06 44.48 49.34 45.02 45.22 45.02 44.93 44.48"/><polygon class="cls-5" points="55.73 41.21 56 41.76 57.39 41.76 57.13 41.21 55.73 41.21"/><polygon class="cls-5" points="96.27 41.21 96.42 41.76 97.82 41.76 97.67 41.21 96.27 41.21"/><polygon class="cls-5" points="110.95 44.48 111.07 45.02 112.44 45.02 112.33 44.48 110.95 44.48"/><polygon class="cls-5" points="125.62 41.21 125.7 41.76 127.09 41.76 127.02 41.21 125.62 41.21"/><polygon class="cls-5" points="189.35 44.48 193.47 44.48 193.37 45.02 189.26 45.02 189.35 44.48"/><polygon class="cls-5" points="212.73 44.48 212.58 45.02 213.95 45.02 214.11 44.48 212.73 44.48"/><polygon class="cls-5" points="242.99 44.48 242.75 45.02 238.64 45.02 238.87 44.48 242.99 44.48"/><polygon class="cls-5" points="280.13 44.48 279.79 45.02 283.91 45.02 284.25 44.48 280.13 44.48"/><polygon class="cls-5" points="152.18 41.21 152.19 41.76 153.58 41.76 153.58 41.21 152.18 41.21"/><polygon class="cls-5" points="181.53 41.21 181.46 41.76 180.07 41.76 180.14 41.21 181.53 41.21"/><polygon class="cls-7" points="143.88 26.1 139.72 26.1 139.7 26.7 143.86 26.7 143.88 26.1"/><polygon class="cls-8" points="68.89 26.7 81.38 26.7 81.47 26.1 68.99 26.1 68.89 26.7"/><polygon class="cls-9" points="98.11 26.1 85.64 26.1 85.55 26.7 98.04 26.7 98.11 26.1"/><polygon class="cls-10" points="293.64 26.1 281.16 26.1 281.32 26.7 293.82 26.7 293.64 26.1"/><polygon class="cls-11" points="2.94 37.82 15.73 37.82 15.91 37.18 3.14 37.18 2.94 37.82"/><polygon class="cls-12" points="10.13 32.81 17.16 32.81 17.34 32.19 10.31 32.19 10.13 32.81"/><polygon class="cls-13" points="11.23 29.13 18.21 29.13 18.38 28.52 11.41 28.52 11.23 29.13"/><polygon class="cls-14" points="22.06 30.35 30.45 30.35 30.61 29.74 22.23 29.74 22.06 30.35"/><polygon class="cls-15" points="32.78 37.82 45.57 37.82 45.72 37.18 32.94 37.18 32.78 37.82"/><polygon class="cls-16" points="57.16 29.74 55.76 29.74 55.64 30.35 57.04 30.35 57.16 29.74"/><polygon class="cls-17" points="73.31 33.43 71.9 33.43 71.79 34.05 73.2 34.05 73.31 33.43"/><polygon class="cls-18" points="111.77 28.52 106.19 28.52 106.13 29.13 111.71 29.13 111.77 28.52"/><polygon class="cls-19" points="129.7 32.19 125.48 32.19 125.45 32.81 129.67 32.81 129.7 32.19"/><polygon class="cls-20" points="180.09 29.13 185.68 29.13 185.64 28.52 180.06 28.52 180.09 29.13"/><polygon class="cls-21" points="194 28.52 189.82 28.52 189.86 29.13 194.05 29.13 194 28.52"/><polygon class="cls-22" points="214.12 33.43 214.2 34.05 215.61 34.05 215.53 33.43 214.12 33.43"/><polygon class="cls-23" points="236.02 29.74 223.45 29.74 223.53 30.35 236.13 30.35 236.02 29.74"/><polygon class="cls-24" points="207.49 37.18 207.56 37.82 214.67 37.82 214.59 37.18 207.49 37.18"/><polygon class="cls-25" points="216.01 37.18 216.09 37.82 220.35 37.82 220.27 37.18 216.01 37.18"/><polygon class="cls-26" points="224.52 37.18 224.62 37.82 237.41 37.82 237.3 37.18 224.52 37.18"/><polygon class="cls-27" points="241.55 37.18 241.67 37.82 254.46 37.82 254.32 37.18 241.55 37.18"/><polygon class="cls-28" points="296.9 37.18 284.13 37.18 284.3 37.82 297.09 37.82 296.9 37.18"/><polygon class="cls-29" points="173.44 37.18 173.46 37.82 180.57 37.82 180.53 37.18 173.44 37.18"/><polygon class="cls-30" points="181.95 37.18 181.99 37.82 186.25 37.82 186.21 37.18 181.95 37.18"/><polygon class="cls-31" points="139.36 37.82 152.15 37.82 152.15 37.18 139.38 37.18 139.36 37.82"/><polygon class="cls-32" points="153.57 37.18 153.57 37.82 169.2 37.82 169.18 37.18 153.57 37.18"/><polygon class="cls-33" points="190.47 37.18 190.51 37.82 203.3 37.82 203.24 37.18 190.47 37.18"/><polygon class="cls-34" points="105.25 37.82 109.52 37.82 109.58 37.18 105.32 37.18 105.25 37.82"/><polygon class="cls-35" points="110.94 37.82 125.15 37.82 125.19 37.18 110.99 37.18 110.94 37.82"/><polygon class="cls-36" points="126.57 37.82 135.09 37.82 135.12 37.18 126.6 37.18 126.57 37.82"/><polygon class="cls-37" points="88.2 37.82 95.31 37.82 95.38 37.18 88.29 37.18 88.2 37.82"/><polygon class="cls-38" points="96.73 37.82 100.99 37.82 101.06 37.18 96.8 37.18 96.73 37.82"/><polygon class="cls-39" points="66.89 37.82 71.15 37.82 71.26 37.18 67 37.18 66.89 37.82"/><polygon class="cls-40" points="72.57 37.82 79.67 37.82 79.77 37.18 72.68 37.18 72.57 37.82"/><polygon class="cls-41" points="49.83 37.82 54.1 37.82 54.23 37.18 49.97 37.18 49.83 37.82"/><polygon class="cls-42" points="55.52 37.82 62.62 37.82 62.74 37.18 55.65 37.18 55.52 37.82"/><polygon class="cls-43" points="209.6 18.99 205.5 18.99 205.56 19.58 209.67 19.58 209.6 18.99"/><polygon class="cls-44" points="86.66 18.99 82.57 18.99 82.48 19.58 86.58 19.58 86.66 18.99"/><polygon class="cls-45" points="24.35 7.61 12.35 7.61 12.18 8.16 24.19 8.16 24.35 7.61"/><polygon class="cls-46" points="45.67 7.61 40.34 7.61 40.2 8.16 45.54 8.16 45.67 7.61"/><polygon class="cls-47" points="43.92 14.94 50.69 14.94 50.82 14.37 44.06 14.37 43.92 14.94"/><polygon class="cls-48" points="42.7 14.37 34.59 14.37 34.44 14.94 42.57 14.94 42.7 14.37"/><polygon class="cls-49" points="68.32 7.61 62.99 7.61 62.88 8.16 68.22 8.16 68.32 7.61"/><polygon class="cls-50" points="84.31 7.61 80.32 7.61 80.23 8.16 84.23 8.16 84.31 7.61"/><polygon class="cls-51" points="92.23 8.16 104.24 8.16 104.3 7.61 92.31 7.61 92.23 8.16"/><polygon class="cls-52" points="111.99 10.96 107.96 10.96 107.91 11.53 111.94 11.53 111.99 10.96"/><polygon class="cls-53" points="152.26 12.09 140.15 12.09 140.13 12.66 152.26 12.66 152.26 12.09"/><polygon class="cls-54" points="176.43 10.96 172.4 10.96 172.42 11.53 176.45 11.53 176.43 10.96"/><polygon class="cls-55" points="188.38 9.28 188.34 8.72 184.33 8.72 184.37 9.28 188.38 9.28"/><polygon class="cls-56" points="268.49 8.72 268.63 9.28 276.66 9.28 276.51 8.72 268.49 8.72"/><polygon class="cls-57" points="296.72 9.28 296.55 8.72 289.87 8.72 290.03 9.28 296.72 9.28"/><polygon class="cls-58" points="255.6 4.85 255.48 4.3 248.87 4.3 248.98 4.85 255.6 4.85"/><polygon class="cls-59" points="255.26 9.28 255.13 8.72 248.46 8.72 248.57 9.28 255.26 9.28"/><polygon class="cls-60" points="264.62 9.28 264.49 8.72 256.47 8.72 256.6 9.28 264.62 9.28"/><polygon class="cls-61" points="180.68 14.94 180.65 14.37 177.94 14.37 177.97 14.94 180.68 14.94"/><polygon class="cls-62" points="216.47 9.28 216.4 8.72 211.05 8.72 211.12 9.28 216.47 9.28"/><polygon class="cls-63" points="221.06 13.23 220.97 12.66 216.93 12.66 217.01 13.23 221.06 13.23"/><polygon class="cls-64" points="225.83 9.28 225.75 8.72 220.4 8.72 220.48 9.28 225.83 9.28"/><polygon class="cls-65" points="222.06 15.52 224.1 15.52 224.01 14.94 221.98 14.94 222.06 15.52"/><polygon class="cls-66" points="214.61 15.52 216.64 15.52 216.56 14.94 214.53 14.94 214.61 15.52"/><polygon class="cls-67" points="120.17 9.28 136.22 9.28 136.24 8.72 120.21 8.72 120.17 9.28"/><polygon class="cls-68" points="168.3 8.72 152.27 8.72 152.27 9.28 168.32 9.28 168.3 8.72"/><polygon class="cls-69" points="201.11 16.09 201.05 15.52 196.98 15.52 197.04 16.09 201.11 16.09"/><polygon class="cls-70" points="13.21 22.52 7.71 22.52 7.52 23.11 13.04 23.11 13.21 22.52"/><polygon class="cls-71" points="24.22 22.52 20.09 22.52 19.93 23.11 24.06 23.11 24.22 22.52"/><polygon class="cls-72" points="36.61 22.52 32.48 22.52 32.33 23.11 36.46 23.11 36.61 22.52"/><polygon class="cls-73" points="251.3 22.52 251.42 23.11 258.31 23.11 258.18 22.52 251.3 22.52"/><polygon class="cls-74" points="259.56 22.52 259.69 23.11 267.96 23.11 267.82 22.52 259.56 22.52"/><polygon class="cls-75" points="244.42 22.52 238.92 22.52 239.02 23.11 244.53 23.11 244.42 22.52"/><polygon class="cls-76" points="119.14 23.11 135.68 23.11 135.7 22.52 119.18 22.52 119.14 23.11"/><polygon class="cls-77" points="153.57 33.43 152.16 33.43 152.16 34.05 153.57 34.05 153.57 33.43"/><polygon class="cls-78" points="185.24 22.52 185.28 23.11 189.41 23.11 189.37 22.52 185.24 22.52"/><polygon class="cls-79" points="218.76 26.1 218.84 26.7 223.01 26.7 222.92 26.1 218.76 26.1"/><polygon class="cls-5" points="164.59 44.48 164.56 45.02 168.68 45.02 168.72 44.48 164.59 44.48"/><polygon class="cls-5" points="73.82 44.48 74.03 45.02 75.4 45.02 75.19 44.48 73.82 44.48"/><polygon class="cls-1" points="20.18 44.48 20.53 45.02 21.34 42.05 20.98 41.51 20.18 44.48"/><polygon class="cls-1" points="280.13 44.48 279.79 45.02 278.99 41.86 279.32 41.31 280.13 44.48"/></svg>